<svg version="1.1" id="Layer_1" xmlns="http://www.w3.org/2000/svg" xmlns:xlink="http://www.w3.org/1999/xlink" x="0px" y="0px"
	 width="100%" viewBox="0 0 912 336" enable-background="new 0 0 912 336" xml:space="preserve">
<path fill="#000000" opacity="1.000000" stroke="none" 
	d="
M204.992569,58.979473 
	C206.041336,58.587246 207.211807,57.652416 208.069077,59.083107 
	C208.681931,60.105862 207.974091,61.168751 207.160995,61.668835 
	C201.592560,65.093620 202.220047,70.555893 202.274780,75.891151 
	C202.337769,82.031204 202.289413,88.172409 202.289413,94.848724 
	C205.034134,93.933487 205.821106,91.735580 207.125854,90.234314 
	C211.386642,85.331734 215.508728,80.306580 219.614395,75.271675 
	C227.029007,66.178917 226.842209,64.138893 217.358322,56.292248 
	C229.172562,56.292248 240.245895,56.292248 251.319229,56.292248 
	C240.649109,61.685066 232.772369,70.099342 225.809067,79.586113 
	C235.173950,73.158882 240.992249,61.095047 254.955872,60.923523 
	C254.528168,61.984482 254.430267,62.742401 254.167770,62.804489 
	C241.841110,65.720261 235.206482,75.745491 227.305054,84.198044 
	C225.806198,85.801445 225.888168,87.312531 226.806915,89.174095 
	C233.514389,102.764656 239.200424,116.984940 247.190201,129.768051 
	C251.699081,136.981964 259.325775,142.732925 269.560547,142.194000 
	C277.945343,141.752502 286.371887,142.104065 294.779938,142.104065 
	C294.798981,141.647919 294.818024,141.191772 294.837097,140.735626 
	C284.111145,140.735626 273.385193,140.735626 262.838440,140.735626 
	C262.213226,137.732880 264.001617,137.290421 265.115814,136.537979 
	C276.857330,128.608627 281.136292,116.090195 285.450836,103.598297 
	C286.204926,101.414940 285.015167,100.072945 283.073608,99.350388 
	C281.231995,98.665001 279.337433,98.121864 276.837646,97.312729 
	C279.232025,92.018555 281.033691,86.782776 285.489960,83.062645 
	C287.927704,82.625641 289.157654,85.352615 292.001099,85.228745 
	C295.186737,79.127708 297.242584,72.313492 299.531708,65.607750 
	C300.144379,63.813034 298.748138,62.520107 297.714142,61.196785 
	C296.633850,59.814198 294.790985,58.879814 294.909637,56.206375 
	C304.386993,56.206375 313.843170,56.206375 323.511169,56.206375 
	C323.671570,60.610428 316.059540,62.296925 320.053009,67.824112 
	C321.480927,63.037544 324.192902,59.542625 328.248016,57.116287 
	C329.857941,58.921513 328.938232,59.958332 328.116425,60.645035 
	C323.947998,64.128220 324.031647,68.077888 326.171265,72.662025 
	C328.400024,77.437088 329.492523,82.717888 331.977783,87.046280 
	C334.391724,87.618843 335.395966,85.670975 337.475983,85.450623 
	C338.920135,85.982857 339.423187,90.016586 342.485046,87.607239 
	C342.599335,87.517288 343.679504,88.248474 343.907166,88.771996 
	C346.076538,93.760666 348.158875,98.787209 350.379730,104.073006 
	C346.454803,105.206306 342.740265,103.482071 338.506805,104.961021 
	C343.676605,118.121902 345.516327,132.696381 358.886230,141.005859 
	C359.713348,141.519897 360.665741,142.169785 361.565186,142.178101 
	C370.849243,142.264099 380.134369,142.230927 389.437683,141.506851 
	C380.154541,139.622437 370.688507,141.057220 361.269501,140.195374 
	C361.451660,139.425323 361.433075,138.943649 361.603546,138.863373 
	C370.891449,134.489716 372.648224,126.277664 372.661133,117.193535 
	C372.682465,102.195000 372.492157,87.192963 372.776764,72.199722 
	C372.878876,66.819275 372.116302,62.333782 367.201630,59.321335 
	C366.411743,58.837154 365.909149,57.884216 364.436005,56.177254 
	C375.813080,55.228153 386.246979,55.837860 396.998627,55.686787 
	C396.318420,60.228580 389.975159,59.964622 390.233093,65.911644 
	C393.972137,61.421837 397.342072,58.277958 402.678711,57.581955 
	C402.635437,60.724648 400.141693,61.218105 398.656769,62.449890 
	C397.116394,63.727631 395.982727,64.873909 397.111084,67.050499 
	C403.241486,78.876015 409.314362,90.731354 415.443298,102.557625 
	C415.723877,103.099091 416.353973,103.459427 416.803925,103.887596 
	C419.174927,103.143059 418.729370,101.219421 418.734589,99.695038 
	C418.767822,90.030075 418.730591,80.364563 418.657776,70.699677 
	C418.622833,66.058342 416.618408,62.394421 412.921082,59.588543 
	C411.812195,58.747028 410.217529,58.304768 409.681854,56.122391 
	C418.954254,56.122391 427.905487,56.122391 436.902557,56.122391 
	C436.852203,56.867020 436.940338,57.394512 436.793671,57.470814 
	C427.596680,62.255955 426.003082,70.476013 426.115662,79.848602 
	C426.329803,97.676872 426.199554,115.510300 426.068970,133.340530 
	C426.050507,135.860062 427.562714,139.287170 423.324280,140.312057 
	C417.383667,141.748520 414.123260,140.657944 411.875305,136.343140 
	C404.565338,122.312302 397.287292,108.264786 389.951599,94.247437 
	C388.882294,92.204193 387.565979,90.290245 386.333923,88.267143 
	C384.322144,89.175797 384.627441,90.965103 384.597992,92.214996 
	C384.346893,102.866539 384.205170,113.514496 384.756317,124.174217 
	C385.075348,130.344421 388.041992,134.789810 392.233704,138.846451 
	C393.855774,140.416260 396.032684,141.636002 396.595398,144.739563 
	C372.308594,144.739563 348.177185,144.739563 324.045746,144.739563 
	C323.997498,144.170227 323.949219,143.600891 323.900940,143.031570 
	C328.489044,140.981979 333.576294,142.323334 338.398499,142.086304 
	C343.353485,141.842743 348.329773,142.032272 353.296722,142.032272 
	C353.313721,141.517334 353.330719,141.002396 353.347717,140.487457 
	C342.424377,140.487457 331.501038,140.487457 320.767212,140.487457 
	C320.400665,137.972336 321.424408,137.186615 322.387970,136.653961 
	C327.832672,133.644073 328.058655,129.537582 325.177032,124.612946 
	C323.586517,121.894859 323.427856,118.512337 321.126343,115.770012 
	C315.793884,117.807419 314.728912,124.312897 309.606781,127.254791 
	C308.449341,121.773994 314.318420,120.122154 315.033051,115.378944 
	C312.282471,116.976868 311.327271,119.304169 310.033905,121.299355 
	C308.147675,124.209122 306.403900,124.462822 304.513275,121.297844 
	C302.471283,117.879456 300.316895,114.530403 296.949097,111.231392 
	C289.209747,123.516312 291.481476,134.274567 301.805298,144.755432 
	C274.702759,144.755432 249.176498,144.755432 223.650223,144.755432 
	C223.613327,144.219849 223.576431,143.684265 223.539536,143.148682 
	C228.513229,141.039688 233.939957,142.315247 239.138275,142.103745 
	C244.593018,141.881821 250.063782,142.054123 255.574478,141.506195 
	C244.034683,139.617249 232.243774,140.944412 220.582092,140.116852 
	C220.693329,139.168823 220.607361,138.725739 220.786850,138.542053 
	C226.953781,132.231049 226.967529,132.229492 222.805664,123.921242 
	C219.399399,117.121391 215.965225,110.335541 212.336700,103.133141 
	C205.277557,108.852470 202.308258,114.981186 201.838242,123.894279 
	C201.347260,133.204849 207.907257,137.700363 211.943390,144.636871 
	C200.083542,144.636871 188.947647,144.636871 177.811752,144.636871 
	C177.795761,144.114365 177.779755,143.591858 177.763763,143.069351 
	C186.649750,140.761963 195.895905,142.864212 204.885330,141.823334 
	C204.904312,141.414795 204.923279,141.006241 204.942245,140.597702 
	C195.099197,140.597702 185.256149,140.597702 175.707352,140.597702 
	C175.167725,138.329666 175.896500,137.500961 176.719406,137.022598 
	C182.250824,133.807266 182.959488,128.861145 182.845093,122.944672 
	C182.519791,106.119301 182.574356,89.280991 182.832352,72.453186 
	C182.914108,67.120026 182.332291,62.557999 177.454712,59.458088 
	C176.532211,58.871807 175.537476,58.036438 176.137802,55.677128 
	C181.950287,55.677128 188.011368,55.675808 194.072449,55.677734 
	C196.738846,55.678581 199.405289,55.678387 202.071625,55.693184 
	C203.830490,55.702946 205.586014,55.742268 204.751221,58.770927 
	C193.896667,64.996689 197.749817,74.286903 198.422333,82.800827 
	C200.936325,74.943619 196.542740,65.241440 204.992569,58.979473 
M315.148193,100.879623 
	C314.508362,94.085091 311.702423,88.170799 308.304657,82.080658 
	C300.602203,91.174004 301.134766,96.208420 310.328735,105.860703 
	C311.845581,104.419586 313.375122,102.966400 315.148193,100.879623 
M197.212555,124.460480 
	C197.542130,126.877228 196.392273,129.598969 199.097839,131.665527 
	C199.711472,125.775063 199.221039,119.851837 199.846085,114.048767 
	C200.502823,107.951324 207.060760,104.994278 209.567062,98.744362 
	C199.024170,108.253471 197.347687,111.728806 197.212555,124.460480 
M234.222382,114.315231 
	C237.082489,119.752686 239.942596,125.190147 242.802689,130.627609 
	C243.134628,130.449356 243.466568,130.271103 243.798492,130.092850 
	C237.212448,116.928406 230.626419,103.763962 224.040375,90.599525 
	C223.626495,90.803917 223.212601,91.008308 222.798721,91.212700 
	C225.738678,99.047012 230.475143,106.039528 234.222382,114.315231 
M379.676514,101.315369 
	C378.942444,108.492592 380.244629,115.580414 380.548035,122.715202 
	C380.107574,115.455460 382.124176,108.133789 379.676514,101.315369 
M342.221405,98.802971 
	C340.381439,99.816841 337.957458,98.478172 335.313843,101.110817 
	C339.286469,100.895386 342.247711,101.850220 345.390869,100.954781 
	C344.566895,98.241081 344.566895,98.241081 342.221405,98.802971 
M287.131165,125.342545 
	C287.282990,126.725517 286.648132,128.317184 288.863556,129.928116 
	C288.510498,125.282013 289.751740,121.343689 289.710236,117.216423 
	C288.125793,119.444931 287.223938,121.856400 287.131165,125.342545 
M301.204437,86.436638 
	C302.754547,82.521194 304.507660,78.670059 304.758942,74.326492 
	C303.684875,78.489403 300.266846,81.806908 301.204437,86.436638 
z"/>
<path fill="#000000" opacity="1.000000" stroke="none" 
	d="
M653.024719,123.034958 
	C650.605591,124.726158 649.487305,123.050705 648.309998,121.284462 
	C646.020569,117.849548 643.661621,114.460884 640.788818,110.259506 
	C637.304626,116.455246 635.979370,122.174126 636.139465,128.410400 
	C636.308228,134.982834 641.927368,138.668991 644.202637,144.102646 
	C640.526184,145.827377 613.266479,145.929352 609.040466,144.293442 
	C611.172058,142.034866 611.172058,142.038498 623.255920,142.062790 
	C628.375061,142.073090 633.494141,142.064514 638.641846,141.449524 
	C627.931458,139.520874 617.002930,140.983948 606.400146,140.100800 
	C605.972412,138.531891 606.700012,138.039276 607.394714,137.609055 
	C619.978333,129.816330 624.636780,116.953041 629.044922,103.905396 
	C629.885010,101.418716 628.900146,100.096367 626.676575,99.316040 
	C625.734314,98.985390 624.784241,98.669167 623.821045,98.408257 
	C622.867249,98.149887 621.834229,98.086082 621.026245,96.774506 
	C622.442932,91.525444 625.527710,87.032753 629.621826,82.822731 
	C631.282959,83.666222 633.020203,84.548393 635.309387,85.710793 
	C639.148315,79.096916 641.007629,71.873474 643.430603,64.909576 
	C643.959778,63.388630 642.333069,62.258419 641.422363,61.086823 
	C640.349060,59.706146 638.449524,58.835781 638.604065,56.169834 
	C648.109619,56.169834 657.590149,56.169834 667.272583,56.169834 
	C667.612488,60.765667 658.977966,62.824837 664.402222,68.544083 
	C664.048157,62.572197 668.201782,60.193111 672.030518,57.143860 
	C673.647217,59.638470 672.168884,60.727364 671.153076,61.546852 
	C667.667847,64.358536 667.799072,67.557259 669.373596,71.318832 
	C671.601746,76.641754 673.542908,82.084824 675.454834,87.079613 
	C678.232239,87.665955 679.322571,85.324265 681.269165,85.546021 
	C682.888855,86.382301 682.875061,88.337105 683.973816,89.759987 
	C684.598755,88.872993 685.106445,88.152458 686.239136,86.544846 
	C689.122681,92.728722 691.704529,98.265694 694.393188,104.031540 
	C690.210205,105.565498 686.455383,103.204376 682.384399,105.233757 
	C687.400269,118.094826 689.203552,132.497986 702.314819,140.834488 
	C703.432251,141.544983 704.382629,142.648529 705.838684,142.499664 
	C714.983459,141.564728 724.143616,142.304367 733.295044,142.176834 
	C733.553650,142.173233 733.807556,141.827393 735.336792,140.715363 
	C724.537109,140.715363 714.958191,140.715363 705.373901,140.715363 
	C705.373901,139.504120 705.272827,138.991898 705.388306,138.937286 
	C715.634216,134.090515 716.416138,124.631691 716.570129,115.191032 
	C716.822815,99.696030 716.573364,84.193405 716.658203,68.694664 
	C716.676392,65.376816 715.501587,62.951214 712.866821,61.021927 
	C711.426025,59.966896 709.752380,59.030170 708.988220,56.262981 
	C719.446106,55.061314 729.721497,55.904064 740.223694,55.711754 
	C740.148926,59.197506 737.301025,59.520977 735.741516,60.959930 
	C734.526123,62.081310 732.867798,62.866936 734.001587,64.997612 
	C737.885132,72.295250 741.739746,79.608269 745.605408,86.915421 
	C745.991577,86.727142 746.377747,86.538872 746.763916,86.350594 
	C743.944275,80.538483 741.147949,74.714935 738.298645,68.917397 
	C735.244507,62.702820 738.801758,57.869728 746.278809,58.169380 
	C746.582947,59.863579 745.286560,60.641655 744.192444,61.203815 
	C739.765930,63.478134 740.259949,66.234222 742.357056,70.141373 
	C749.010010,82.536507 755.269348,95.142906 762.622498,107.435234 
	C762.622498,95.468811 762.704468,83.501602 762.589844,71.536278 
	C762.527222,64.993088 759.092041,60.292324 753.726196,56.247517 
	C762.756348,56.247517 771.786499,56.247517 781.167969,56.247517 
	C780.745239,57.113556 780.650452,57.755436 780.325012,57.909241 
	C770.696716,62.460083 769.533081,71.226349 769.449341,80.287048 
	C769.283020,98.270073 769.444031,116.256012 769.318970,134.239700 
	C769.304138,136.371841 770.961121,139.987030 766.944153,140.146698 
	C762.952087,140.305405 758.445374,142.017868 755.700073,136.501389 
	C747.538452,120.100838 738.961060,103.907158 730.541687,87.634933 
	C730.164490,86.905960 729.743591,86.199600 728.278564,85.498047 
	C728.278564,88.812141 728.281982,92.126244 728.277893,95.440331 
	C728.268433,103.106071 728.635559,110.796265 728.144348,118.431145 
	C727.572937,127.313202 730.678162,134.306168 737.112427,140.154602 
	C738.393616,141.319077 740.117554,142.320969 740.222168,144.412216 
	C734.369141,146.329803 670.643372,145.735565 666.753418,142.990845 
	C677.714355,141.136520 687.841614,142.456940 697.866333,142.196838 
	C697.885254,141.688644 697.904236,141.180435 697.923157,140.672241 
	C686.769958,140.672241 675.616699,140.672241 664.543762,140.672241 
	C664.375488,137.498810 665.930969,136.515793 667.281555,135.725296 
	C671.272461,133.389450 671.516296,130.353821 669.709717,126.484291 
	C668.100525,123.037460 666.820923,119.436752 665.271423,115.595612 
	C659.638306,117.921097 658.347778,124.171310 654.014221,127.125320 
	C651.822327,126.315079 652.837219,124.860306 653.222046,123.155128 
	C656.407349,120.430702 658.591736,117.689888 660.039612,114.378006 
	C656.788330,116.537109 654.306580,119.306671 653.024719,123.034958 
M658.727844,100.865692 
	C658.302856,93.890633 655.385620,87.882423 652.024109,81.533524 
	C645.286316,90.809753 645.035950,95.063820 650.359680,101.712799 
	C654.312012,106.648979 654.312012,106.649002 658.727844,100.865692 
M722.959045,97.499908 
	C723.334045,108.583809 721.836731,119.845741 725.724182,130.597748 
	C723.256226,112.446777 726.061157,94.096588 724.376099,75.307999 
	C723.598511,76.148415 723.242065,76.353020 723.238281,76.563950 
	C723.119019,83.208916 723.033997,89.854492 722.959045,97.499908 
M636.381714,107.262810 
	C631.180359,117.369408 629.665344,126.721794 633.059875,131.887741 
	C632.080750,124.882919 633.540649,119.022552 635.401733,113.185127 
	C636.011536,111.272324 637.856079,109.604584 636.381714,107.262810 
M687.399292,97.673500 
	C684.547546,100.943619 679.370728,97.572838 676.674561,101.412849 
	C676.913391,102.819931 676.916321,104.303360 678.079163,105.229568 
	C679.425842,97.772141 685.472778,102.850960 688.907715,101.175827 
	C689.628113,99.690666 688.914368,98.656532 687.399292,97.673500 
M642.852478,89.188667 
	C642.258484,92.003807 639.003113,94.180092 641.055298,97.657753 
	C641.799683,92.779831 644.866699,88.634544 645.654114,83.112434 
	C643.633118,84.892960 643.432861,86.727753 642.852478,89.188667 
M759.377808,113.822182 
	C760.439392,115.280701 760.446594,117.435303 762.986511,119.253052 
	C761.966309,114.274094 759.977417,111.059975 758.060669,107.807724 
	C757.684204,108.001747 757.307678,108.195770 756.931213,108.389786 
	C757.653931,110.017448 758.376648,111.645103 759.377808,113.822182 
z"/>
<path fill="#000000" opacity="1.000000" stroke="none" 
	d="
M238.244049,321.421143 
	C234.677612,320.673553 230.883408,323.165222 227.461792,318.657654 
	C237.747528,317.357697 247.267792,318.427826 256.715363,317.235229 
	C246.621017,317.158508 236.549484,316.996338 226.624863,316.215881 
	C226.034286,314.103699 227.312561,313.286224 228.355118,312.673584 
	C233.322495,309.754608 234.418716,305.372986 234.063721,299.947083 
	C233.685898,294.172485 233.978714,288.354004 233.978714,281.727753 
	C227.321213,282.562958 221.240967,282.309387 215.157806,282.222839 
	C212.968750,282.191681 212.348145,283.661438 212.341827,285.539032 
	C212.318314,292.535645 212.300873,299.532349 212.303833,306.528992 
	C212.304932,309.139526 214.327469,310.624847 215.721039,312.445190 
	C217.690491,315.017761 220.523453,316.995514 221.735275,321.362274 
	C209.756317,321.138489 198.312347,322.140564 186.873672,319.795929 
	C196.077820,317.253632 205.535065,318.567963 214.843079,317.334351 
	C204.878906,315.676819 194.746399,317.041565 184.652817,316.515015 
	C184.825302,315.323090 184.759567,314.827240 184.932083,314.722015 
	C192.149811,310.319336 193.621902,303.664093 192.755157,295.828278 
	C192.229919,291.079773 193.100754,286.226593 192.258163,281.468964 
	C188.773926,280.119324 186.990463,283.213593 184.459198,284.019653 
	C180.117737,280.016418 180.019989,278.657990 183.778793,274.444305 
	C184.221252,273.948334 184.639328,273.290619 185.209091,273.069244 
	C193.286972,269.930817 193.040192,263.254547 192.743484,256.263031 
	C192.377213,247.631744 195.105179,238.114624 184.348404,233.758209 
	C185.828232,231.037399 187.505875,231.678421 188.875793,231.664871 
	C195.705887,231.597260 202.544998,231.830124 209.364609,231.554016 
	C213.058319,231.404465 215.794800,232.457397 217.795319,235.542877 
	C217.776840,235.839935 217.891098,236.317490 217.716736,236.474503 
	C208.279861,244.971848 213.579163,256.103943 212.450714,266.072388 
	C212.282028,267.562531 213.386459,268.497864 214.856094,268.821045 
	C215.668854,268.999786 216.492493,269.132660 217.314865,269.263458 
	C232.414536,271.665192 234.074402,270.304810 233.978882,255.342438 
	C233.927048,247.222961 236.137283,238.428421 226.538574,232.988647 
	C226.884659,232.712433 227.230743,232.436203 227.576828,232.159988 
	C237.192032,232.159988 246.807236,232.159988 256.490479,232.159988 
	C256.945587,235.711380 252.310699,235.883804 252.196350,239.140900 
	C254.897278,238.247498 255.812454,235.110413 258.681824,234.440063 
	C260.979065,236.779709 258.781860,238.142944 257.446533,239.173187 
	C254.059662,241.786270 253.212967,245.055923 253.265976,249.215256 
	C253.482544,266.206207 253.588348,283.204681 253.286911,300.192474 
	C253.191559,305.566254 254.309860,309.816040 258.261169,313.578339 
	C260.206360,315.430450 262.606293,317.240845 263.584015,321.420197 
	C255.060822,321.420197 246.885208,321.420197 238.244049,321.421143 
M248.341888,273.499969 
	C248.341888,284.880676 248.341888,296.261414 248.341888,307.642120 
	C249.046249,307.638062 249.750610,307.634003 250.454971,307.629944 
	C250.832642,286.064972 251.019485,264.499268 249.614716,242.916855 
	C247.705093,252.728043 248.649597,262.638885 248.341888,273.499969 
M231.517334,277.669525 
	C224.896790,278.305328 218.253220,278.752991 211.645874,277.822479 
	C208.286469,277.349365 207.011032,278.591705 207.030594,281.774048 
	C207.078598,289.579407 207.069077,297.385223 207.151840,305.190094 
	C207.160233,305.982513 206.825150,307.290222 208.682281,307.265411 
	C208.745560,305.945312 208.857956,304.640961 208.862167,303.336243 
	C208.882584,297.024933 208.980408,290.711090 208.838089,284.402985 
	C208.743362,280.205139 209.889587,278.107208 214.647354,279.223053 
	C218.868408,280.213043 223.255585,279.784088 227.554718,279.476898 
	C229.124878,279.364685 231.114563,279.616852 231.517334,277.669525 
M207.214920,264.223724 
	C207.479599,264.873596 207.856339,266.338135 208.514618,264.905762 
	C209.156555,263.508972 208.670013,261.632721 208.886063,259.994293 
	C209.882599,252.437714 206.284653,244.313019 212.381409,236.890015 
	C208.151123,239.377487 206.894257,242.510406 207.017929,246.515533 
	C207.192520,252.170273 207.117020,257.832733 207.214920,264.223724 
z"/>
<path fill="#000000" opacity="1.000000" stroke="none" 
	d="
M335.236328,308.037964 
	C334.402191,307.256683 333.826569,306.625061 332.509521,307.057220 
	C332.940521,311.207245 337.533569,312.430023 339.203308,316.462677 
	C332.559906,319.990479 325.456085,322.558350 318.893463,326.987518 
	C316.818573,322.467224 316.610291,318.326324 315.689423,314.380554 
	C313.498871,304.994415 311.361633,295.606171 307.755920,286.610168 
	C306.502197,283.482178 304.568695,282.446960 301.573975,283.487213 
	C298.536743,284.542236 294.161102,283.931091 294.315552,289.253571 
	C294.474854,294.744049 294.409851,300.243805 294.319122,305.737488 
	C294.279449,308.139679 295.449310,309.794647 296.991364,311.407745 
	C299.620148,314.157654 302.165039,316.987793 305.634308,320.747925 
	C293.274048,320.747925 282.160736,320.747925 271.047455,320.747925 
	C271.002930,320.293793 270.958435,319.839661 270.913910,319.385498 
	C275.044128,316.750702 279.884338,318.376038 284.367889,318.103516 
	C288.914154,317.827209 293.490265,318.042542 298.053314,318.042542 
	C298.076385,317.590515 298.099457,317.138489 298.122528,316.686462 
	C288.072540,316.686462 278.022583,316.686462 267.972595,316.686462 
	C267.538849,316.224518 267.105103,315.762573 266.671326,315.300598 
	C278.393005,308.224182 274.459991,297.737152 274.641083,288.304474 
	C271.920959,286.896637 269.556732,289.633820 267.407990,287.570862 
	C268.504242,284.378998 272.734985,285.988464 274.114105,283.106659 
	C271.457001,280.866394 268.669495,283.789001 266.090668,282.858887 
	C265.502655,277.007660 266.393066,275.565186 271.641754,274.819122 
	C273.965729,274.488800 274.828461,273.407349 274.824097,271.248138 
	C274.807678,263.089264 274.716675,254.929092 274.835388,246.772049 
	C274.891083,242.946930 270.854309,242.713272 269.189087,240.059387 
	C273.123322,236.439682 277.911926,234.995682 282.623383,233.670181 
	C296.750702,229.695770 310.797180,228.568756 324.173889,236.350708 
	C326.158264,237.505112 327.785400,239.259766 329.650360,240.638550 
	C330.766205,241.463531 331.223358,243.668198 333.607483,241.874481 
	C335.213531,240.666153 336.034790,242.951233 336.746429,244.137192 
	C340.955078,251.151184 340.108795,261.861786 334.697662,268.022888 
	C332.850189,270.126404 330.672974,272.026306 328.376862,273.634277 
	C320.345490,279.258789 320.125122,279.291077 324.966827,288.139069 
	C330.598969,298.431458 337.298431,307.923828 347.177246,314.724487 
	C348.357849,315.537231 349.851013,316.153137 350.268860,318.541809 
	C340.383667,321.391388 331.348572,326.605560 321.513031,329.979706 
	C327.778107,323.439606 336.135559,320.881042 344.535461,317.473328 
	C342.183380,313.424652 337.827789,311.776611 335.236328,308.037964 
M294.341949,260.469666 
	C294.342072,263.124634 294.343170,265.779572 294.342041,268.434540 
	C294.341217,270.276337 294.751709,271.571136 297.053345,271.734253 
	C304.215546,272.241730 316.439117,264.293427 318.274200,257.442413 
	C319.060516,254.506790 320.341736,250.525726 317.403870,248.613449 
	C311.927826,245.049057 306.271332,241.309860 298.998199,242.411041 
	C295.753143,242.902344 294.256042,244.261627 294.324982,247.537415 
	C294.408752,251.518112 294.343689,255.501953 294.341949,260.469666 
M329.477844,268.992859 
	C335.323883,263.747345 337.834137,257.415833 336.157227,249.352295 
	C335.525635,249.746597 335.119965,249.853180 335.041199,250.075546 
	C334.767426,250.848480 334.463348,251.654877 334.425659,252.460464 
	C334.028076,260.951996 329.332764,266.686279 322.428101,270.851868 
	C312.654053,276.748566 312.597382,276.681396 318.028992,286.802643 
	C318.971405,288.558655 320.047394,290.244446 321.093811,291.942871 
	C323.829437,296.383026 326.036285,301.240631 330.688507,304.666840 
	C331.243561,302.082916 329.626129,300.856293 328.652985,299.449524 
	C324.464233,293.394073 321.190125,286.879486 318.371429,280.092651 
	C317.260376,277.417389 317.631317,275.875183 320.385773,274.563782 
	C323.369202,273.143402 326.097260,271.186615 329.477844,268.992859 
M291.641602,296.489563 
	C291.636230,293.491791 291.990845,290.438446 291.538940,287.509583 
	C290.901947,283.381256 293.083893,282.199249 296.433228,281.768829 
	C299.162018,281.418152 301.971649,281.297180 304.772705,278.454712 
	C300.550079,277.467407 297.242706,278.561249 293.919464,278.870819 
	C290.469208,279.192230 289.096405,280.822510 289.238220,284.423798 
	C289.486969,290.741730 289.210571,297.078705 289.308289,303.405365 
	C289.330597,304.848297 288.574524,306.773651 291.086639,307.849487 
	C292.136322,304.310516 291.465393,300.844696 291.641602,296.489563 
M290.351074,240.252869 
	C290.299469,240.579208 290.196625,240.907089 290.206299,241.231598 
	C290.230530,242.043793 290.413147,242.395721 291.312714,241.801819 
	C296.144318,238.611969 301.428436,239.611130 306.663574,240.244476 
	C308.000641,240.406250 309.405029,241.360764 310.758362,240.020905 
	C305.237823,235.618698 295.980988,235.512527 290.351074,240.252869 
M289.291321,257.515808 
	C289.570038,261.710358 288.619171,266.031525 290.431274,270.497833 
	C292.301819,264.989655 291.998901,250.328217 289.925903,246.543533 
	C288.861877,250.017044 289.493286,253.322769 289.291321,257.515808 
z"/>
<path fill="#000000" opacity="1.000000" stroke="none" 
	d="
M450.419128,145.378143 
	C448.714386,145.237564 447.220093,145.646606 446.517883,143.688629 
	C447.881653,141.545578 450.179810,142.142349 452.191528,142.048950 
	C462.323151,141.578537 472.477722,142.874298 482.602142,141.645493 
	C499.247192,139.625259 509.499023,130.708817 513.645691,114.352264 
	C516.610168,102.658752 516.561096,90.974976 512.725708,79.442642 
	C512.120178,77.621880 511.712341,75.596123 509.018341,73.730850 
	C511.730408,83.650070 512.529358,92.913795 512.426025,102.338051 
	C512.171753,125.532707 498.375397,139.824234 475.255676,140.308990 
	C466.435547,140.493912 457.613831,140.608047 448.792450,140.724030 
	C447.145264,140.745712 445.461365,140.759979 444.114258,139.615906 
	C443.993835,138.599564 444.483246,137.834412 445.210236,137.472046 
	C451.750427,134.212143 451.838898,128.459366 451.745819,122.196228 
	C451.498291,105.545036 451.526215,88.885986 451.742554,72.233925 
	C451.808594,67.152809 451.245636,62.673279 447.078827,59.248566 
	C446.360474,58.658146 445.609650,57.833683 445.995697,56.495209 
	C446.123199,56.386456 446.359528,56.007088 446.604980,56.001049 
	C459.890656,55.674400 473.207672,54.645458 486.364105,57.559181 
	C489.952087,58.353809 493.278259,59.784649 496.579559,61.423637 
	C499.946014,63.094982 501.820007,67.232651 506.893066,66.481972 
	C508.915619,66.182686 510.973083,69.994331 512.457886,72.441933 
	C519.452698,83.972778 519.087219,96.616386 517.691589,109.276909 
	C516.710022,118.180786 513.644104,126.389481 507.545746,133.272827 
	C499.475494,142.382019 488.645782,144.671463 477.340942,145.275558 
	C468.538940,145.745911 459.692017,145.375961 450.419128,145.378143 
M495.278900,113.723686 
	C495.617706,111.928505 496.128906,110.146454 496.266754,108.335968 
	C497.037811,98.209198 497.751495,88.056816 494.389099,78.205124 
	C493.380157,75.248924 492.503296,71.525597 489.212891,70.696434 
	C484.912354,69.612701 480.649414,68.175606 476.050812,68.072914 
	C471.638428,67.974365 470.263397,69.561134 470.306549,73.883545 
	C470.484436,91.702484 470.371979,109.524231 470.388062,127.344925 
	C470.393494,133.353699 471.505005,134.364258 477.482727,133.546951 
	C481.955109,132.935455 485.610474,130.687057 488.547028,127.306297 
	C491.774567,123.590591 493.855164,119.272484 495.278900,113.723686 
M467.599426,75.485710 
	C467.343750,66.191460 467.344147,66.193871 476.781494,64.595436 
	C476.891632,64.576775 476.927063,64.117043 477.047943,63.680462 
	C476.239288,63.498573 475.440491,63.324837 474.644531,63.138954 
	C467.414948,61.450577 466.121521,62.070202 466.029755,69.229164 
	C465.784668,88.353134 465.907135,107.481949 465.933594,126.608772 
	C465.934723,127.425064 465.381378,128.625031 467.350250,129.288025 
	C467.028717,111.478035 466.465820,93.915337 467.599426,75.485710 
z"/>
<path fill="#000000" opacity="1.000000" stroke="none" 
	d="
M499.027924,238.973419 
	C494.943085,242.030640 494.421631,246.557770 494.387970,251.075089 
	C494.242706,270.564087 494.302704,290.054688 494.135132,309.543365 
	C494.114929,311.897644 495.627350,315.141235 491.794037,316.284607 
	C486.582153,317.839172 482.138428,316.502808 480.134216,312.669830 
	C472.188354,297.473572 464.301544,282.246429 456.342285,267.057251 
	C455.619781,265.678406 455.469666,263.741119 453.475647,263.328308 
	C453.293274,263.470154 453.055054,263.563721 453.046509,263.675018 
	C451.961121,277.769043 451.426544,291.884918 453.807129,305.879852 
	C454.560181,310.307159 459.021057,312.608307 461.678040,315.967041 
	C462.791809,317.375061 464.501678,318.319977 464.979095,320.226990 
	C460.327576,322.258087 432.205933,321.801941 428.237732,318.852783 
	C438.745728,317.010101 448.482849,318.757416 458.037292,317.363831 
	C448.369995,314.935913 438.340454,318.565308 428.485596,316.214478 
	C428.833893,315.477936 428.897980,315.022980 429.112122,314.935516 
	C438.020844,311.297119 440.546356,303.832245 440.619720,295.176819 
	C440.763763,278.186005 440.618286,261.192841 440.718079,244.201416 
	C440.735474,241.237350 439.602753,239.198563 437.461578,237.307831 
	C435.892700,235.922516 433.702118,235.081375 432.510895,231.593811 
	C445.696106,232.318298 458.461090,229.752213 470.875305,233.776230 
	C471.406342,235.021683 470.898438,235.672119 470.246674,236.226379 
	C464.355682,241.235809 464.319183,241.249771 467.787292,248.003494 
	C473.704163,259.525909 479.667999,271.024200 486.274536,283.815186 
	C487.076202,269.844269 487.013855,257.277649 486.421112,244.727722 
	C486.152161,239.032349 481.872894,235.790619 477.335144,232.631134 
	C486.768646,231.161087 496.006195,231.732941 506.126648,231.716248 
	C504.129822,235.245285 500.388397,235.539627 499.120056,238.701233 
	C499.001373,238.998779 499.027924,238.973419 499.027924,238.973419 
M447.382233,292.925323 
	C447.634033,294.902618 447.885803,296.879913 448.137604,298.857208 
	C448.290222,298.817566 448.442810,298.777924 448.595428,298.738281 
	C448.595428,288.793884 448.595428,278.849487 448.595428,268.905090 
	C448.178253,268.901794 447.761047,268.898529 447.343872,268.895264 
	C447.343872,276.609253 447.343872,284.323273 447.382233,292.925323 
M474.326477,268.526459 
	C474.166443,268.490631 473.991516,268.398071 473.850555,268.434998 
	C473.710327,268.471741 473.480347,268.697021 473.500641,268.739960 
	C475.549347,273.076843 477.618103,277.404266 479.685608,281.732269 
	C480.085175,281.520752 480.484741,281.309235 480.884277,281.097748 
	C478.822174,277.030945 476.760071,272.964142 474.326477,268.526459 
z"/>
<path fill="#000000" opacity="1.000000" stroke="none" 
	d="
M349.830444,267.355835 
	C351.301025,257.920258 353.618713,249.279556 359.857544,242.275818 
	C369.993256,230.897385 387.037842,227.755188 401.499542,234.537582 
	C403.264343,235.365219 404.765442,236.669891 406.991150,235.202499 
	C408.449829,234.240768 409.755737,235.838623 410.941315,236.657288 
	C417.814392,241.403442 422.163055,248.074020 424.420593,255.925201 
	C429.828064,274.731201 428.789246,292.740723 416.978271,309.231293 
	C406.438080,323.947510 381.639984,326.156616 370.793579,316.387268 
	C372.432770,315.428192 373.747162,316.569031 374.899872,316.942841 
	C399.300537,324.855225 419.600983,310.090240 423.599243,286.652679 
	C425.927368,273.005219 424.717346,259.789764 417.496307,247.586105 
	C416.836517,246.470993 415.914673,245.510925 414.808594,244.084274 
	C413.672150,246.226151 414.926819,247.421692 415.549622,248.787689 
	C422.401337,263.816620 423.564819,279.249084 418.098083,294.888214 
	C413.042969,309.349976 402.511536,317.057800 387.251190,317.477081 
	C372.254944,317.889130 361.593994,310.301636 354.651764,297.477325 
	C349.660126,288.256287 349.256104,278.058167 349.830444,267.355835 
M404.390686,290.830688 
	C406.258484,279.757538 406.417084,268.642059 404.586487,257.580139 
	C403.656097,251.958084 403.305176,246.569138 395.225403,244.794235 
	C383.642487,242.249817 376.900726,244.853867 373.522644,256.324554 
	C370.508667,266.558929 370.732056,277.075043 371.703339,287.523224 
	C372.322113,294.179565 374.306549,300.547302 378.818329,305.841217 
	C383.743683,311.620453 389.234802,312.227081 395.354309,307.434265 
	C400.485962,303.415161 402.790649,297.775085 404.390686,290.830688 
M367.793213,271.704803 
	C368.166656,268.406799 368.385468,265.082581 368.939911,261.815277 
	C371.575256,246.285004 375.778046,242.286880 391.264191,240.317032 
	C391.524750,240.283905 391.747711,239.955215 391.992920,239.760696 
	C391.862152,238.640640 390.957336,238.580429 390.163361,238.428528 
	C381.066772,236.688370 373.616455,240.359344 369.743683,248.832687 
	C363.692596,262.071991 364.466400,276.004120 366.181946,289.922394 
	C366.959137,296.227783 369.661530,301.783752 375.091248,307.301361 
	C368.677521,294.127319 367.555695,288.556915 367.793213,271.704803 
z"/>
<path fill="#000000" opacity="1.000000" stroke="none" 
	d="
M792.018005,273.031677 
	C785.881958,266.750854 782.644165,259.417755 783.823120,250.478149 
	C785.236206,239.762650 795.225586,231.174622 806.916748,230.683334 
	C813.092773,230.423782 819.200806,230.783325 825.227417,232.406219 
	C830.946228,233.946213 836.738037,235.234940 842.979614,233.108780 
	C839.119019,240.235031 836.787354,247.636688 832.546326,255.414169 
	C830.498291,249.957169 826.541138,247.598953 822.807434,245.098282 
	C817.615417,241.620880 812.038513,240.657410 806.368347,243.975128 
	C802.961670,245.968491 801.203674,249.521576 802.688171,252.929611 
	C804.803101,257.785034 807.479797,262.721527 813.458252,264.206116 
	C817.975647,265.327881 822.481323,266.502075 826.969360,267.736206 
	C840.623413,271.490845 848.541199,282.012054 846.977417,294.256683 
	C845.252319,307.764374 834.560608,316.834839 820.639893,317.588135 
	C810.595215,318.131653 801.226501,315.294983 791.699036,313.205658 
	C788.241211,312.447296 785.275024,312.479767 782.154358,314.127380 
	C783.143677,315.653809 784.505432,315.555847 785.809143,315.368561 
	C792.599304,314.393250 798.958801,316.470337 805.396362,318.042786 
	C816.930359,320.860107 827.980225,321.050293 838.273132,313.587341 
	C848.683350,306.039368 854.308960,289.559631 844.617859,278.019684 
	C844.113525,277.419098 843.499756,276.730743 844.475891,275.213593 
	C849.576843,278.893890 851.845093,284.018341 852.238708,289.868469 
	C853.349426,306.375488 842.595825,319.368164 826.212463,322.434845 
	C816.833008,324.190521 808.025024,321.981415 799.116760,319.920929 
	C791.903503,318.252472 784.814758,317.469055 777.820312,321.005524 
	C776.458252,321.694183 774.545105,321.377991 772.885864,321.381042 
	C752.060425,321.419464 731.235046,321.438416 710.409607,321.434021 
	C709.016602,321.433716 707.339050,322.059540 706.410156,319.967621 
	C707.764832,317.920868 709.929199,318.728424 711.713928,318.722931 
	C731.039917,318.663330 750.366150,318.687683 769.692322,318.683685 
	C771.191345,318.683350 772.694031,318.699036 774.188354,318.603821 
	C775.725098,318.505890 777.230408,318.158295 777.860962,316.511810 
	C778.469543,314.922791 777.242371,314.002380 776.285828,313.150635 
	C772.729187,309.983551 770.618774,305.774475 768.071899,301.888092 
	C767.200562,300.558502 766.187073,299.105804 767.430908,296.146149 
	C771.766846,300.708801 773.203613,307.046661 778.627258,310.435059 
	C783.990906,304.674683 785.964355,297.147675 789.681396,289.643616 
	C793.381042,293.860779 792.445801,300.012207 797.789307,303.016205 
	C796.590271,299.489441 794.866638,296.612091 795.344177,292.997986 
	C798.454956,293.798096 798.431519,296.304443 799.308105,298.104614 
	C803.185242,306.067108 812.701416,314.592865 823.883972,310.739838 
	C833.158508,307.544220 837.146301,300.190430 833.159912,290.215759 
	C831.604492,288.446136 830.431946,287.245758 829.010498,285.787415 
	C824.096924,282.171875 818.777954,280.338623 813.211365,279.399506 
	C805.830811,278.154388 798.686035,276.284149 791.970764,272.983398 
	C791.987183,272.998810 792.018005,273.031677 792.018005,273.031677 
M821.040894,240.262787 
	C821.171936,240.175476 821.376160,240.111618 821.413696,239.994385 
	C821.453247,239.870804 821.380005,239.614487 821.276672,239.555801 
	C817.085999,237.175491 812.655212,236.348862 807.864075,237.239273 
	C802.468079,238.242096 797.472656,242.700455 796.533386,247.799042 
	C795.515015,253.326981 798.825500,256.642059 802.862000,259.591125 
	C798.997742,255.493423 798.316956,250.651001 800.384155,245.804306 
	C802.494751,240.855789 807.192261,239.311523 812.233337,238.873474 
	C815.100952,238.624283 817.845703,239.284805 821.040894,240.262787 
z"/>
<path fill="#000000" opacity="1.000000" stroke="none" 
	d="
M753.999512,315.355469 
	C738.174133,315.363403 722.848633,315.360657 707.523132,315.390778 
	C705.568787,315.394592 703.115479,314.887329 702.215393,317.173767 
	C700.462708,321.625854 696.910950,321.418884 693.155823,321.406891 
	C673.999084,321.345551 654.842041,321.396332 635.685303,321.332611 
	C633.847046,321.326508 631.602112,322.162476 630.318237,319.763306 
	C631.336914,317.561157 633.378052,318.063690 635.064453,318.062897 
	C654.720215,318.053589 674.376038,318.109558 694.031799,318.153931 
	C695.632019,318.157562 697.490784,318.944366 698.487122,316.975037 
	C699.443970,315.083740 698.691528,313.268127 697.487000,311.871704 
	C694.053040,307.890472 692.142517,303.071991 689.836853,298.473358 
	C689.371033,297.544281 688.465332,296.440338 689.596558,295.221313 
	C691.918457,295.339050 692.205261,297.459656 693.086243,298.922333 
	C694.886536,301.911377 696.383423,305.102905 698.384644,307.943756 
	C699.580078,309.640686 700.078064,313.326233 703.035767,312.065247 
	C706.238220,310.699860 710.276184,308.963654 710.504395,304.783447 
	C710.912354,297.309418 710.659607,289.797852 710.630188,282.302185 
	C710.618530,279.325592 708.923950,279.185059 706.572632,279.932739 
	C704.660950,280.540649 702.944702,282.562561 700.297668,280.843140 
	C702.322510,276.816010 707.539001,278.196533 710.194336,275.116882 
	C705.440735,272.812683 702.228088,276.619598 698.019897,277.751892 
	C698.468384,271.744934 702.431702,269.309540 706.916443,268.068024 
	C710.105591,267.185120 710.756348,265.596039 710.690735,262.764832 
	C710.575012,257.770142 710.330505,252.741699 710.760376,247.781174 
	C711.214355,242.543243 709.555237,238.780197 705.086975,236.060974 
	C703.872437,235.321808 702.462036,234.532547 701.895752,232.296967 
	C724.649597,232.296967 747.243958,232.296967 770.624817,232.296967 
	C767.042664,239.078049 762.287598,244.821655 759.875488,252.545410 
	C752.452759,246.135147 745.087830,242.237946 735.732117,243.283539 
	C731.739868,243.729706 730.044006,245.007050 730.297180,249.094742 
	C730.543823,253.077255 730.234985,257.091522 730.386169,261.083649 
	C730.473389,263.385437 729.267212,266.753296 732.824524,267.254425 
	C736.248596,267.736786 740.083374,268.888489 742.912842,265.132843 
	C744.962524,262.412323 746.462280,259.122925 750.401489,256.863281 
	C750.401489,266.103638 750.401489,274.707947 750.401489,283.270050 
	C749.774353,283.374512 749.246094,283.551453 749.193481,283.458618 
	C745.465576,276.887787 739.267944,279.283356 733.776245,279.218018 
	C731.197571,279.187317 730.360291,280.809631 730.365479,283.144623 
	C730.382141,290.640686 730.385803,298.136841 730.359863,305.632843 
	C730.351562,308.022705 731.211121,309.548737 733.851196,309.340912 
	C737.665649,309.040649 741.513184,308.896179 745.275513,308.263000 
	C750.275208,307.421600 754.092529,304.686401 756.827087,300.295471 
	C758.194946,298.098907 759.011414,295.425812 762.212524,293.326782 
	C763.476746,301.935333 769.326416,307.702972 774.918823,315.354858 
	C767.015991,315.354858 760.757629,315.354858 753.999512,315.355469 
M752.968323,244.161469 
	C753.296753,244.283859 753.594543,245.030853 753.957458,244.222519 
	C753.997192,244.134048 753.832458,243.922928 753.724243,243.803452 
	C752.254517,242.181335 750.542419,241.002716 748.473877,240.139328 
	C741.553894,237.250977 734.353760,238.536804 727.249634,238.500839 
	C724.434753,238.486588 724.342346,240.681870 724.345215,242.782745 
	C724.354431,249.441437 724.323181,256.100403 724.382080,262.758606 
	C724.394226,264.136414 723.912781,265.879211 726.062317,266.449615 
	C728.436035,265.529510 727.585266,263.404877 727.618530,261.766571 
	C727.733398,256.108887 727.678711,250.447678 727.678223,244.787796 
	C727.678101,242.849152 727.868774,240.824051 730.308472,240.727493 
	C737.890808,240.427383 745.651306,239.114029 752.968323,244.161469 
M724.351868,280.866730 
	C724.354675,288.862671 724.330811,296.858795 724.382141,304.854401 
	C724.392761,306.509918 723.874939,308.639679 726.540649,308.916473 
	C728.183167,307.457306 727.610474,305.676727 727.626404,304.101349 
	C727.697144,297.105621 727.651245,290.108765 727.660889,283.112335 
	C727.670959,275.789062 727.677551,275.820740 735.253052,275.828918 
	C737.250793,275.831085 739.354980,276.279327 741.224609,274.868134 
	C737.439880,274.319092 733.665039,274.523773 729.922058,274.265411 
	C725.593323,273.966553 723.621826,275.551422 724.351868,280.866730 
z"/>
<path fill="#000000" opacity="1.000000" stroke="none" 
	d="
M528.599121,68.390366 
	C525.518677,63.771339 520.862488,61.126114 517.057495,56.287399 
	C528.273621,56.287399 538.726440,56.287399 549.349670,56.287399 
	C550.448608,57.442135 548.729980,58.547302 548.923828,59.895447 
	C550.902710,60.617779 551.759888,56.712673 553.986877,58.582863 
	C554.489258,59.179615 554.582153,59.998470 554.037537,60.388927 
	C548.472290,64.379097 551.320129,68.077431 554.132141,72.096870 
	C558.214844,77.932755 561.982849,83.988785 566.460266,90.829720 
	C573.740112,79.388557 581.555542,69.454910 586.276367,57.646481 
	C588.274292,52.648972 584.229492,49.307556 581.556702,44.808155 
	C592.651367,41.674549 603.275757,38.369751 613.800842,33.849850 
	C598.209778,51.542393 587.760254,72.194771 575.881836,91.942497 
	C589.840637,74.257431 598.986877,52.954765 616.114136,37.183933 
	C617.821167,39.804527 616.677063,40.963539 615.649536,41.998409 
	C603.416199,54.319756 595.534546,69.714310 585.987976,83.931427 
	C584.966858,85.452118 584.232300,87.202431 583.045349,88.568741 
	C573.627808,99.409660 570.888733,111.968735 572.024414,126.077133 
	C572.439453,131.233292 575.219299,134.177002 577.811523,137.732880 
	C579.357117,139.852966 581.676147,141.436157 582.585083,144.717438 
	C568.923889,144.717438 555.490417,144.717438 542.056946,144.717438 
	C542.028992,144.061966 542.001038,143.406494 541.973083,142.751022 
	C553.522766,141.137939 565.279236,142.597839 576.912292,141.452316 
	C566.297119,139.473862 555.465088,141.044434 544.897400,140.086060 
	C544.369995,137.723602 545.805969,136.738220 546.928589,136.006561 
	C552.047424,132.670242 552.393677,127.814362 552.898315,122.207695 
	C553.976318,110.230064 550.739441,100.143402 543.475525,90.718178 
	C538.101929,83.745705 533.668152,76.048943 528.599121,68.390366 
M566.347839,124.245636 
	C566.662537,126.854614 565.392090,130.025894 569.012695,132.205399 
	C569.012695,127.017754 569.132446,122.535645 568.979187,118.062889 
	C568.824463,113.549095 569.642944,108.942505 568.357788,104.514206 
	C567.719055,104.491440 567.080322,104.468681 566.441589,104.445915 
	C566.410522,110.732132 566.379456,117.018341 566.347839,124.245636 
z"/>
<path fill="#000000" opacity="1.000000" stroke="none" 
	d="
M126.224617,315.104248 
	C109.881775,304.590363 105.722595,288.793427 106.478958,270.586670 
	C106.947296,259.312958 110.353722,249.348648 117.855637,240.963486 
	C126.301346,231.523407 136.808258,228.040817 149.381577,230.408005 
	C157.672623,231.968948 165.422913,237.167572 175.519073,233.018875 
	C171.066177,242.160843 167.339203,249.812454 163.740311,257.201111 
	C161.742004,257.273132 161.449127,256.159088 161.220276,255.258438 
	C159.897156,250.051361 158.364014,246.017578 152.154312,243.619736 
	C143.644485,240.333710 135.888535,241.642151 132.132904,250.108154 
	C127.463760,260.633392 127.726334,271.836517 128.790604,282.992828 
	C129.425476,289.647858 130.971390,296.124969 134.585892,301.920410 
	C136.540451,305.054260 139.243744,307.438141 142.283585,309.083710 
	C141.878098,310.959839 140.415985,310.007782 139.730270,310.873779 
	C140.186874,311.095093 140.588913,311.434418 141.020950,311.478333 
	C154.448929,312.843170 161.675507,307.679749 164.858337,294.433807 
	C165.284698,292.659363 165.466293,290.825623 165.903427,289.054443 
	C166.275589,287.546600 166.999313,286.083740 168.855621,286.240173 
	C170.683151,286.394196 171.081757,287.855652 171.332962,289.464050 
	C173.085831,300.686920 166.076050,312.721252 155.311844,316.525665 
	C147.208557,319.389618 138.950623,318.950623 129.988983,316.956482 
	C128.262192,316.240326 127.243401,315.672272 126.224617,315.104248 
M124.443535,293.009369 
	C127.164566,301.133820 128.987061,303.836273 133.070343,305.801514 
	C124.196999,288.638336 124.432526,277.707184 125.869179,260.842987 
	C126.361259,255.066635 127.855156,249.349747 131.717270,244.634171 
	C135.787888,239.664001 141.351761,238.200302 147.596008,238.047928 
	C146.260223,236.347137 144.558685,236.458923 142.916534,236.395355 
	C134.347305,236.063599 127.496803,241.504349 124.616043,251.790115 
	C120.867348,265.174774 121.114586,278.712891 124.443535,293.009369 
z"/>
<path fill="#000000" opacity="1.000000" stroke="none" 
	d="
M581.014587,319.027893 
	C580.003906,318.473419 579.051208,317.739410 577.973877,317.391418 
	C561.482483,312.065033 554.052002,299.567627 551.871033,283.463898 
	C550.432922,272.844818 551.269165,262.311798 555.527466,252.144165 
	C562.709595,234.995361 578.821960,226.557404 596.884644,230.893570 
	C604.183594,232.645782 611.112122,236.855392 619.707886,234.575562 
	C616.009277,242.201019 612.310730,249.826477 608.716248,257.237244 
	C606.849365,257.323273 606.423889,256.248688 606.301208,255.332764 
	C605.477600,249.184830 602.462769,245.550537 596.305481,243.223938 
	C588.276306,240.190002 581.390381,241.880524 577.352905,249.591568 
	C574.735352,254.590836 574.128052,260.108734 573.620361,265.530975 
	C572.684326,275.528717 573.224915,285.487976 576.429138,295.131958 
	C578.372253,300.980011 581.770508,305.795471 587.006775,309.060028 
	C586.181519,311.308136 584.630859,309.560211 583.451294,310.151001 
	C583.940125,310.436157 584.306091,310.751984 584.729248,310.881561 
	C595.077087,314.051239 604.627686,309.428314 608.503723,299.186371 
	C609.553833,296.411774 610.006104,293.410126 610.721436,290.509918 
	C611.192200,288.601044 611.293091,286.090088 613.953430,286.244690 
	C616.649597,286.401398 616.677429,289.037048 616.633301,290.897614 
	C616.296875,305.078278 609.340820,316.971741 592.200562,318.299927 
	C588.721802,318.569489 585.224915,318.605560 581.358887,318.875488 
	C580.981384,319.001709 581.014587,319.027893 581.014587,319.027893 
M577.902832,239.291550 
	C573.476929,242.448776 570.871338,246.963364 569.602112,252.013992 
	C565.926392,266.640198 565.879211,281.305542 570.462708,295.786438 
	C571.760498,299.886658 573.945740,303.549225 579.106140,306.653137 
	C569.691406,292.217072 569.736633,277.283630 570.768921,262.294556 
	C571.189941,256.182281 572.365723,250.061600 576.374268,244.980850 
	C580.488586,239.766022 586.228088,238.319702 593.793274,238.282135 
	C587.606934,235.165527 583.019409,236.299072 577.902832,239.291550 
z"/>
<path fill="#000000" opacity="1.000000" stroke="none" 
	d="
M672.714050,307.904419 
	C679.116333,304.514587 680.744507,298.187042 683.389893,290.854462 
	C687.285217,300.393127 690.669495,308.246094 696.459656,316.070984 
	C673.199951,316.070984 651.080200,316.070984 629.122192,316.070984 
	C628.441711,314.419922 629.312927,313.715759 630.143982,313.262665 
	C636.134033,309.997101 636.909912,304.753204 636.778687,298.485107 
	C636.437073,282.162476 636.459961,265.823822 636.783264,249.500397 
	C636.893616,243.928223 636.011719,239.369354 631.202759,236.059387 
	C630.163818,235.344330 629.053650,234.436707 628.731140,232.312897 
	C638.696472,232.312897 648.562439,232.312897 658.401917,232.312897 
	C658.906006,234.237823 657.663269,235.100067 656.680420,235.834534 
	C651.561890,239.659332 650.040039,244.563889 650.199646,250.982193 
	C650.638672,268.633972 650.329956,286.304077 650.358887,303.966858 
	C650.361694,305.689240 649.906921,307.568542 651.189697,309.205872 
	C653.432129,308.038818 652.631714,306.162781 652.630676,304.684204 
	C652.617004,284.691986 652.471741,264.699738 652.491211,244.707626 
	C652.496277,239.469193 657.116699,237.777023 660.265442,234.403381 
	C662.125671,237.668961 659.927429,238.852386 658.657104,239.995789 
	C656.079102,242.316208 655.267090,244.992310 655.290894,248.411575 
	C655.423218,267.406525 655.478088,286.404022 655.280823,305.397736 
	C655.236633,309.654327 656.679871,311.042419 660.751709,310.675537 
	C664.764587,310.313934 668.679138,309.729095 672.714050,307.904419 
z"/>
<path fill="#000000" opacity="1.000000" stroke="none" 
	d="
M527.078369,321.383453 
	C522.455444,320.990753 518.124817,322.282318 514.120239,319.661926 
	C523.112854,316.886658 532.463989,318.856476 541.554993,317.255463 
	C531.727112,315.985840 521.707520,318.221039 512.096802,316.147491 
	C511.436859,314.561646 512.349854,313.804138 513.125549,313.387177 
	C519.395447,310.016357 519.913025,304.504303 519.780518,298.117035 
	C519.441833,281.793701 519.457764,265.454590 519.780457,249.130630 
	C519.891174,243.530060 518.988525,238.989212 514.017822,235.826874 
	C512.941956,235.142395 511.854645,234.239563 511.641113,232.631454 
	C513.190613,230.868469 515.317505,231.723282 517.169312,231.681259 
	C522.665527,231.556503 528.169556,231.746078 533.664062,231.588058 
	C537.987732,231.463699 542.238281,231.182175 544.829590,236.044205 
	C544.829590,235.974274 544.964722,236.485306 544.810059,236.597687 
	C538.861328,240.921127 538.987244,247.119751 539.079285,253.595123 
	C539.306580,269.588867 539.315430,285.590302 539.072083,301.583466 
	C538.996033,306.578125 539.956848,310.614807 543.860168,314.012085 
	C545.777039,315.680481 547.947815,317.461670 548.925476,321.382721 
	C541.597961,321.382721 534.581055,321.382721 527.078369,321.383453 
M534.172974,300.295532 
	C534.366638,302.630493 533.800171,305.086365 535.439575,307.216217 
	C535.439575,287.037903 535.439575,266.859589 535.439575,246.681290 
	C535.018921,246.681091 534.598267,246.680878 534.177612,246.680679 
	C534.177612,264.237671 534.177612,281.794678 534.172974,300.295532 
z"/>
<path fill="#000000" opacity="1.000000" stroke="none" 
	d="
M498.988220,239.011505 
	C502.184570,239.468018 504.717102,236.456772 507.912079,237.003616 
	C508.749298,238.762909 507.626007,239.533249 506.619446,239.893784 
	C500.145996,242.212433 499.398712,247.585983 499.386536,253.297806 
	C499.342865,273.787781 499.364868,294.277893 499.347504,314.767944 
	C499.341919,321.354919 499.317474,321.498444 492.760925,321.321350 
	C489.817596,321.241852 486.532013,322.515228 483.614594,319.889130 
	C486.008118,317.056183 489.024231,317.908905 491.569397,318.194733 
	C495.334808,318.617554 496.732788,317.468933 496.580353,313.645935 
	C495.724579,292.185364 496.094421,270.714508 496.156342,249.245453 
	C496.166504,245.712952 498.384491,243.005447 498.974976,239.350952 
	C499.027924,238.973419 499.001373,238.998779 498.988220,239.011505 
z"/>
<path fill="#000000" opacity="1.000000" stroke="none" 
	d="
M430.495422,144.529236 
	C425.489716,145.572098 420.837463,145.884903 415.711395,144.580521 
	C417.400391,141.490280 419.753998,141.890152 421.706268,142.087845 
	C429.362671,142.863190 428.023468,141.138275 428.030823,135.585815 
	C428.052917,118.925331 427.988586,102.264687 428.038696,85.604340 
	C428.052185,81.117882 428.241760,76.624687 428.547943,72.148087 
	C429.006348,65.445396 433.633179,61.236771 439.957672,61.892044 
	C439.564178,62.532902 439.361725,63.350433 438.905884,63.532040 
	C431.813904,66.357620 431.198914,72.231102 431.245422,78.758324 
	C431.384399,98.250160 431.302948,117.743713 431.263123,137.236496 
	C431.258392,139.552139 430.978577,141.867203 430.495422,144.529236 
z"/>
<path fill="#000000" opacity="1.000000" stroke="none" 
	d="
M766.211060,145.381561 
	C764.262939,145.324203 762.765869,145.315369 761.280640,145.177521 
	C760.857483,145.138260 760.469116,144.724121 759.767395,144.303757 
	C761.230408,141.704956 763.809875,141.785660 765.774963,142.191284 
	C771.351990,143.342407 771.987366,140.683975 771.925415,136.005508 
	C771.685547,117.882568 771.736694,99.754837 771.811218,81.629440 
	C771.826843,77.824066 772.169861,73.983932 772.772156,70.225525 
	C773.680786,64.556023 777.345886,61.727356 783.509033,61.477898 
	C784.039062,63.277687 782.596497,63.852509 781.485229,64.334648 
	C776.650513,66.432220 775.235962,70.336807 775.241577,75.225540 
	C775.265198,95.679115 775.213074,116.132782 775.203552,136.586411 
	C775.199463,145.359528 775.215881,145.359543 766.211060,145.381561 
z"/>
<path fill="#000000" opacity="1.000000" stroke="none" 
	d="
M125.988510,315.321960 
	C127.243401,315.672272 128.262192,316.240326 129.562958,316.883057 
	C155.999985,326.249329 171.049988,316.779358 174.911789,289.582886 
	C177.282959,290.167297 177.296539,291.421783 177.135605,292.563660 
	C175.586258,303.556915 172.824585,314.221039 162.099243,319.797821 
	C150.888245,325.627075 139.292404,324.901855 128.121735,319.030212 
	C126.934532,318.406189 124.553543,318.025726 125.988510,315.321960 
z"/>
<path fill="#000000" opacity="1.000000" stroke="none" 
	d="
M580.961670,318.993561 
	C587.277405,320.852173 593.654846,321.320068 600.034729,319.300476 
	C606.325073,317.309235 610.869141,313.111450 614.591187,307.774811 
	C618.392456,302.324554 618.022705,295.560852 620.129639,289.107605 
	C624.342957,294.758575 618.519958,311.513000 611.076782,317.183502 
	C599.811646,325.765717 578.193298,325.537048 570.905151,316.238922 
	C574.354431,317.235229 577.299500,318.085938 580.629517,318.982239 
	C581.014587,319.027893 580.981384,319.001709 580.961670,318.993561 
z"/>
<path fill="#000000" opacity="1.000000" stroke="none" 
	d="
M829.259460,286.045380 
	C830.431946,287.245758 831.604492,288.446136 832.957642,289.918579 
	C832.973816,291.117340 833.552612,292.219788 832.170837,293.168152 
	C825.432861,286.176880 815.935120,285.788391 807.246033,283.344482 
	C802.761536,282.083130 798.245850,280.980133 794.056580,278.879395 
	C792.251404,277.974213 790.548401,276.889343 789.554932,275.068970 
	C788.388672,272.931946 789.261963,272.319702 791.711304,272.944305 
	C792.018005,273.031677 791.987183,272.998810 792.181885,273.252594 
	C795.181885,276.285919 798.701233,277.653351 802.424011,278.666748 
	C811.375366,281.103455 820.315063,283.583069 829.259460,286.045380 
z"/>
<path fill="#000000" opacity="1.000000" stroke="none" 
	d="
M169.147797,250.254364 
	C171.959778,245.311005 174.231995,240.442123 177.673050,236.377289 
	C178.278091,236.716751 178.883133,237.056198 179.488174,237.395660 
	C175.436478,245.262665 171.384781,253.129669 167.333084,260.996674 
	C164.389297,256.587036 168.009262,253.895737 169.147797,250.254364 
z"/>
<path fill="#000000" opacity="1.000000" stroke="none" 
	d="
M616.796021,245.851837 
	C618.919128,242.578629 620.118774,239.109573 623.451599,236.980667 
	C621.134277,245.613373 616.045654,252.925034 612.457275,261.474670 
	C609.920044,257.911438 609.920044,257.911438 616.796021,245.851837 
z"/>
<path fill="#000000" opacity="1.000000" stroke="none" 
	d="
M840.441956,250.313019 
	C838.875183,252.569550 839.052429,255.885300 834.492310,256.376373 
	C837.549072,248.316513 841.222046,241.477737 845.744568,234.163834 
	C848.122498,238.233154 845.066406,240.044312 844.167664,242.330170 
	C843.140320,244.943039 841.798462,247.432205 840.441956,250.313019 
z"/>
<path fill="#000000" opacity="1.000000" stroke="none" 
	d="
M752.602661,282.662048 
	C752.601196,274.316956 752.601196,266.430389 752.601196,257.428497 
	C755.582214,261.173340 756.215820,279.750336 754.423950,286.459473 
	C752.247559,286.181366 752.851440,284.405731 752.602661,282.662048 
z"/>
<path fill="#000000" opacity="1.000000" stroke="none" 
	d="
M761.508545,253.103012 
	C764.261047,246.422623 767.968933,240.760773 772.248230,235.608490 
	C773.568237,236.240982 773.992859,236.901138 773.645081,237.499451 
	C770.496277,242.917419 766.633179,247.902420 764.045959,253.672134 
	C763.403870,255.104095 762.131653,255.744476 761.508545,253.103012 
z"/>
</svg>